<svg width="36" class="icon" height="36" viewBox="0 0 36 36"  fill="none" xmlns="http://www.w3.org/2000/svg">
<g clip-path="url(#clip0_207_471)">
<path d="M14.742 7.5L11.742 10.5H6V28.5H30V10.5H24.258L21.258 7.5H14.742ZM13.5 4.5H22.5L25.5 7.5H31.5C31.8978 7.5 32.2794 7.65804 32.5607 7.93934C32.842 8.22064 33 8.60218 33 9V30C33 30.3978 32.842 30.7794 32.5607 31.0607C32.2794 31.342 31.8978 31.5 31.5 31.5H4.5C4.10218 31.5 3.72064 31.342 3.43934 31.0607C3.15804 30.7794 3 30.3978 3 30V9C3 8.60218 3.15804 8.22064 3.43934 7.93934C3.72064 7.65804 4.10218 7.5 4.5 7.5H10.5L13.5 4.5ZM18 27C15.812 27 13.7135 26.1308 12.1664 24.5836C10.6192 23.0365 9.75 20.938 9.75 18.75C9.75 16.562 10.6192 14.4635 12.1664 12.9164C13.7135 11.3692 15.812 10.5 18 10.5C20.188 10.5 22.2865 11.3692 23.8336 12.9164C25.3808 14.4635 26.25 16.562 26.25 18.75C26.25 20.938 25.3808 23.0365 23.8336 24.5836C22.2865 26.1308 20.188 27 18 27ZM18 24C19.3924 24 20.7277 23.4469 21.7123 22.4623C22.6969 21.4777 23.25 20.1424 23.25 18.75C23.25 17.3576 22.6969 16.0223 21.7123 15.0377C20.7277 14.0531 19.3924 13.5 18 13.5C16.6076 13.5 15.2723 14.0531 14.2877 15.0377C13.3031 16.0223 12.75 17.3576 12.75 18.75C12.75 20.1424 13.3031 21.4777 14.2877 22.4623C15.2723 23.4469 16.6076 24 18 24Z" fill="#F6F9FF" fill-opacity="0.85"/>
</g>
<defs>
<clipPath id="clip0_207_471">
<rect width="36" height="36" fill="white"/>
</clipPath>
</defs>
</svg><?xml version="1.0" standalone="no"?><!DOCTYPE svg PUBLIC "-//W3C//DTD SVG 1.1//EN" "http://www.w3.org/Graphics/SVG/1.1/DTD/svg11.dtd"><svg t="1672971583664" class="icon" viewBox="0 0 1024 1024" version="1.1" xmlns="http://www.w3.org/2000/svg" p-id="2798" xmlns:xlink="http://www.w3.org/1999/xlink" width="200" height="200"><path d="M512 208c-132.8 0-240 107.2-240 240s107.2 240 240 240 240-107.2 240-240-107.2-240-240-240z m0 416c-96.8 0-176-79.2-176-176s79.2-176 176-176 176 79.2 176 176-79.2 176-176 176z m384-176c0-212-172-384-384-384S128 236 128 448c0 192.8 142.4 352.8 328 380l-4 68H256v64h512v-64H573.6l-4-68C754.4 800 896 640.8 896 448zM512 768c-176.8 0-320-143.2-320-320s143.2-320 320-320 320 143.2 320 320-143.2 320-320 320z m128-352c0 52.8-43.2 96-96 96s-96-43.2-96-96 43.2-96 96-96 96 43.2 96 96z" p-id="2799"></path></svg>
