<svg xmlns="http://www.w3.org/2000/svg" fill="none" viewBox="0 0 36 36"><g clip-path="url(#a)"><path fill-opacity=".85" fill="#F6F9FF" d="M4.5 4.5h3v3h-3v-3Zm6 0h3v3h-3v-3Zm6 0h3v3h-3v-3Zm6 0h3v3h-3v-3Zm6 0h3v3h-3v-3Zm0 6h3v3h-3v-3Zm-24 18h3v3h-3v-3Zm0-6h3v3h-3v-3Zm0-6h3v3h-3v-3Zm0-6h3v3h-3v-3Zm11.5 6 1.555-2.332a1.5 1.5 0 0 1 1.247-.668h4.396a1.501 1.501 0 0 1 1.247.668L26 16.5h4a1.5 1.5 0 0 1 1.5 1.5v12a1.5 1.5 0 0 1-1.5 1.5H12a1.5 1.5 0 0 1-1.5-1.5V18a1.5 1.5 0 0 1 1.5-1.5h4Zm-2.5 12h15v-9h-4.105l-2-3h-2.79l-2 3H13.5v9ZM21 27a3 3 0 1 1 0-6 3 3 0 0 1 0 6Z"/></g><defs><clipPath id="a"><path fill="#fff" d="M0 0h36v36H0z"/></clipPath></defs></svg>