<svg xmlns="http://www.w3.org/2000/svg" fill="none" viewBox="0 0 16 16"><path fill="#909399" d="M11.333 14.667v-1.334h2v-2h1.334v2.334c0 .26-.107.493-.307.693-.2.2-.433.307-.693.307h-2.334Zm-6.666 0H2.333a.963.963 0 0 1-.693-.307.963.963 0 0 1-.307-.693v-2.334h1.334v2h2v1.334Zm6.666-13.334h2.334c.26 0 .493.107.693.307.2.2.307.433.307.693v2.334h-1.334v-2h-2V1.333Zm-6.666 0v1.334h-2v2H1.333V2.333c0-.26.107-.493.307-.693.2-.2.433-.307.693-.307h2.334Zm4 10.167 2.666-1.533v-3.06L8.667 8.44v3.06ZM8 7.28l2.667-1.527L8 4.187 5.333 5.753 8 7.28ZM4.667 9.967 7.333 11.5V8.44L4.667 6.907v3.06Zm7.486-4.907c.334.213.514.5.514.88v4.213c0 .38-.18.667-.514.88L8.5 13.153c-.333.214-.667.214-1 0l-3.653-2.12c-.334-.213-.514-.5-.514-.88V5.94c0-.38.18-.667.514-.88L7.5 2.94a1.07 1.07 0 0 1 .5-.127c.167 0 .333.04.5.127l3.653 2.12Z" data-follow-fill="#909399"/></svg>