<svg xmlns="http://www.w3.org/2000/svg" fill="none" viewBox="0 0 16 16"><path fill-opacity=".85" fill="#F6F9FF" d="m13.694 4.266-5.4-3.18a.574.574 0 0 0-.6 0l-5.4 3.18a.62.62 0 0 0-.217.235.667.667 0 0 0-.077.318v6.362c0 .112.029.223.082.32.054.098.131.178.224.233l5.4 3.18a.574.574 0 0 0 .6 0l5.4-3.18a.62.62 0 0 0 .217-.235.667.667 0 0 0 .077-.318V4.819a.665.665 0 0 0-.082-.32.618.618 0 0 0-.224-.233ZM8 2.364l4.164 2.455L8 7.275 3.836 4.819 8 2.364ZM3.2 5.9l4.2 2.474v4.905l-4.2-2.475V5.901Zm5.4 7.379V8.375l4.2-2.474v4.904L8.6 13.28Z" data-follow-fill="#F6F9FF"/></svg>