<?xml version="1.0" standalone="no"?><!DOCTYPE svg PUBLIC "-//W3C//DTD SVG 1.1//EN" "http://www.w3.org/Graphics/SVG/1.1/DTD/svg11.dtd"><svg t="1678339728273" class="icon" viewBox="0 0 1024 1024" version="1.1" xmlns="http://www.w3.org/2000/svg" p-id="4818" xmlns:xlink="http://www.w3.org/1999/xlink" width="200" height="200"><path d="M371.84 622.933333L320 593.066667v-161.92l51.84-30.08L512 481.92v59.946667zM362.666667 567.68l10.24 5.973333L469.333333 517.76v-11.733333l-96.64-55.466667-10.026666 5.76z" p-id="4819" fill="#e6e6e6"></path><path d="M805.12 303.36L682.666667 378.88v-92.586667L632.106667 234.666667h-448L128 289.92v444.16L183.253333 789.333333H490.666667v-42.666666H200.746667L170.666667 716.586667V307.413333L200.746667 277.333333h413.44L640 303.786667v76.586666a42.666667 42.666667 0 0 0 21.333333 37.546667 36.48 36.48 0 0 0 38.826667 0l103.893333-64 7.04 4.266667-1.28 289.706666-7.04 4.053334-102.4-65.066667a36.906667 36.906667 0 0 0-38.826666 0 42.666667 42.666667 0 0 0-21.333334 37.546667v94.293333L608.426667 746.666667H533.333333v42.666666h95.146667L682.666667 734.08v-110.506667l121.6 76.586667 49.066666-28.373333 1.493334-339.84z" p-id="4820" fill="#e6e6e6"></path></svg>