<svg xmlns="http://www.w3.org/2000/svg" fill="none" viewBox="0 0 16 16"><path fill="#909399" d="M7 12h1.5v1H7v-1Zm1.5-1h1v1h-1v-1Zm0-2h1v1h-1V9Z" data-follow-fill="#909399"/><path fill="#909399" d="M8 1a7 7 0 1 0 7 7 7.008 7.008 0 0 0-7-7Zm-.301 1.015 1.253 2.508-.79 1.977H5.135L4.43 8.694l1.426 1.425-.503.757L3.143 9.5h-.946A5.968 5.968 0 0 1 7.7 2.015ZM2.553 10.5h.304l1.967 1.225a.996.996 0 0 0 1.361-.295l.504-.756a1.003 1.003 0 0 0-.125-1.261l-.995-.995.295-.918h2.298a.995.995 0 0 0 .928-.628l.79-1.977a1.001 1.001 0 0 0-.033-.819l-1.005-2.01a5.98 5.98 0 0 1 4.605 8.434H11.5a1.001 1.001 0 0 0-1 1v1.947A5.974 5.974 0 0 1 2.553 10.5Zm8.947 2.364V11.5h1.364a6.037 6.037 0 0 1-1.364 1.364Z" data-follow-fill="#909399"/></svg>