<svg xmlns="http://www.w3.org/2000/svg" fill="none" viewBox="0 0 16 16"><path fill-opacity=".85" fill="#F6F9FF" d="M8 2.667c1.467 0 2.667 1.2 2.667 2.666 0 1.4-1.4 3.667-2.667 5.267-1.267-1.667-2.667-3.867-2.667-5.267 0-1.466 1.2-2.666 2.667-2.666Zm0-1.334c-2.2 0-4 1.8-4 4 0 3 4 7.334 4 7.334s4-4.4 4-7.334c0-2.2-1.8-4-4-4ZM8 4c-.733 0-1.333.6-1.333 1.333 0 .734.6 1.334 1.333 1.334s1.333-.6 1.333-1.334C9.333 4.6 8.733 4 8 4Zm5.333 8.667c0 1.466-2.4 2.666-5.333 2.666-2.933 0-5.333-1.2-5.333-2.666 0-.867.8-1.6 2.066-2.134l.4.6c-.666.334-1.133.734-1.133 1.2C4 13.267 5.8 14 8 14s4-.733 4-1.667c0-.466-.467-.866-1.2-1.2l.4-.6c1.333.534 2.133 1.267 2.133 2.134Z" data-follow-fill="#F6F9FF"/></svg>