<svg xmlns="http://www.w3.org/2000/svg" fill="none" viewBox="0 0 16 16"><path fill-opacity=".85" fill="#F6F9FF" d="m4.219 3.072 1.506-.89.51.861-1.507.89-.509-.86ZM3 6H2V4.95c0-.35.2-.7.5-.85l.75-.45.5.85-.75.45V6ZM2 7h1v2H2V7Zm1.25 5.35-.75-.45c-.3-.2-.5-.5-.5-.85V10h1v1.05l.75.45-.5.85Zm.966.564.508-.861 1.507.89-.508.862-1.507-.891Zm4.534.636L8 14l-.75-.45-.5.85.75.45c.15.1.35.15.5.15.2 0 .35-.05.5-.15l.75-.45-.5-.85Zm1.011-.597 1.507-.89.508.861-1.506.89-.509-.86Zm2.839-.503-.5-.85.9-.5V10h1v1.05c0 .35-.2.7-.5.85l-.9.55ZM13 7h1v2h-1V7Zm1-1h-1V4.95l-.9-.5.5-.85.9.5c.3.2.5.5.5.85V6ZM9.726 3.02l.508-.86 1.507.89-.508.86-1.507-.89Zm-.976-.57L8 2l-.75.45-.5-.85.75-.45c.15-.1.3-.15.5-.15s.35.05.5.15l.75.45-.5.85Z" data-follow-fill="#F6F9FF"/></svg>