<svg xmlns="http://www.w3.org/2000/svg" fill="none" viewBox="0 0 16 16"><path fill="#909399" d="M5.833.727c-.91 0-1.656.747-1.656 1.657 0 .43.17.82.441 1.115l-1.36 2.744c-.048-.005-.096-.015-.146-.015-.91 0-1.657.746-1.657 1.656 0 .91.746 1.657 1.657 1.657.576 0 1.085-.3 1.382-.75l6.788.98c.177.724.83 1.27 1.606 1.27.91 0 1.657-.746 1.657-1.656 0-.882-.702-1.606-1.573-1.65l-.893-2.783a1.65 1.65 0 0 0 .633-1.29c0-.91-.746-1.657-1.657-1.657-.576 0-1.086.3-1.383.751l-2.205-.602A1.66 1.66 0 0 0 5.833.727Zm0 .84c.457 0 .819.36.819.817a.812.812 0 0 1-.819.818.81.81 0 0 1-.817-.818.81.81 0 0 1 .817-.817Zm5.222 1.277a.81.81 0 0 1 .817.818.81.81 0 0 1-.817.817.812.812 0 0 1-.818-.817c0-.457.362-.818.818-.818Zm-3.804.383 2.162.592c.08.835.783 1.496 1.637 1.499l.872 2.728a1.682 1.682 0 0 0-.524.636l-6.646-.959a1.652 1.652 0 0 0-.496-1.03L5.58 4.017a1.6 1.6 0 0 0 .252.026c.602 0 1.127-.33 1.418-.815Zm-4.14 3.84c.457 0 .82.36.82.817a.813.813 0 0 1-.82.819.812.812 0 0 1-.817-.819.811.811 0 0 1 .818-.818Zm9.777 1.5c.457 0 .818.361.818.818a.81.81 0 0 1-.818.816.81.81 0 0 1-.819-.816.812.812 0 0 1 .82-.819ZM1.455 11.781v3.49h13.09v-3.49h-.912v2.603h-1.118v-1.85h-.912v1.85h-1.117v-1.85h-.912v1.85H8.456v-2.603h-.912v2.603H6.425v-1.85h-.911v1.85H4.397v-1.85h-.912v1.85H2.367v-2.603h-.912Z" clip-rule="evenodd" fill-rule="evenodd" data-follow-fill="#909399"/></svg>