<svg xmlns="http://www.w3.org/2000/svg" fill="none" viewBox="0 0 16 16"><g clip-path="url(#a)"><path fill="#909399" d="m5.001 9.569-1.499 1.5 1.874 1.873 7.122-7.121-1.874-1.874L9.499 5.07l.75.75-.75.75-.75-.75-1.124 1.124L8.75 8.07 8 8.82 6.876 7.696 5.75 8.82l.75.75-.75.75L5 9.57v-.001ZM11 2.822l2.624 2.624a.53.53 0 0 1 0 .75L5.75 14.066a.53.53 0 0 1-.75 0l-2.624-2.624a.53.53 0 0 1 0-.75l7.872-7.871a.53.53 0 0 1 .75 0Z"/></g><defs><clipPath id="a"><path fill="#fff" d="M0 0h16v16H0z"/></clipPath></defs></svg>