<svg xmlns="http://www.w3.org/2000/svg" fill="none" viewBox="0 0 36 36"><path fill-opacity=".85" fill="#F6F9FF" d="M30 23.85c0 .494-.28.923-.707 1.144L18.76 30.766A1.28 1.28 0 0 1 18 31a1.28 1.28 0 0 1-.76-.234L6.707 24.994a1.308 1.308 0 0 1-.518-.476A1.264 1.264 0 0 1 6 23.85v-11.7c0-.494.28-.923.707-1.144L17.24 5.234A1.28 1.28 0 0 1 18 5c.28 0 .547.078.76.234l10.533 5.772c.427.221.707.65.707 1.144v11.7ZM18 7.167 9.111 12.15 18 16.505l8.444-4.355L18 7.167ZM8.222 23.85l9.018 4.55V18l-9.018-4.381V23.85Zm19.556-.386v-10.23L18.76 18v10.4l9.018-4.936Z" data-follow-fill="#F6F9FF"/></svg>