<svg width="54" height="36" viewBox="0 0 54 36" fill="none" xmlns="http://www.w3.org/2000/svg">
<path d="M18 6C21.3 6 24 8.7 24 12C24 15.15 20.85 20.25 18 23.85C15.15 20.1 12 15.15 12 12C12 8.7 14.7 6 18 6ZM18 3C13.05 3 9 7.05 9 12C9 18.75 18 28.5 18 28.5C18 28.5 27 18.6 27 12C27 7.05 22.95 3 18 3ZM18 9C16.35 9 15 10.35 15 12C15 13.65 16.35 15 18 15C19.65 15 21 13.65 21 12C21 10.35 19.65 9 18 9ZM30 28.5C30 31.8 24.6 34.5 18 34.5C11.4 34.5 6 31.8 6 28.5C6 26.55 7.8 24.9 10.65 23.7L11.55 25.05C10.05 25.8 9 26.7 9 27.75C9 29.85 13.05 31.5 18 31.5C22.95 31.5 27 29.85 27 27.75C27 26.7 25.95 25.8 24.3 25.05L25.2 23.7C28.2 24.9 30 26.55 30 28.5Z" fill="#F6F9FF" fill-opacity="0.85"/>
<g clip-path="url(#clip0_208_444)">
<path d="M46 18.7813L49.3 15.4813L50.2427 16.424L46 20.6667L41.7573 16.424L42.7 15.4813L46 18.7813Z" fill="#F6F9FF" fill-opacity="0.85"/>
</g>
<defs>
<clipPath id="clip0_208_444">
<rect width="16" height="16" fill="white" transform="translate(38 10)"/>
</clipPath>
</defs>
</svg>
