<svg xmlns="http://www.w3.org/2000/svg" fill="none" viewBox="0 0 36 36"><path fill-opacity=".85" fill="#F6F9FF" d="M20.842 12H7.158A3.162 3.162 0 0 0 4 15.158v13.684A3.162 3.162 0 0 0 7.158 32h13.684A3.162 3.162 0 0 0 24 28.842V15.158A3.162 3.162 0 0 0 20.842 12Zm1.053 16.842a1.053 1.053 0 0 1-1.053 1.053H7.158c-.58 0-1.053-.472-1.053-1.053V15.158c0-.58.473-1.053 1.053-1.053h13.684c.581 0 1.053.473 1.053 1.053v13.684Z" data-follow-fill="#F6F9FF"/><path fill-opacity=".85" fill="#F6F9FF" d="M24.842 8H11.158a1.053 1.053 0 1 0 0 2.105h13.684c.581 0 1.053.473 1.053 1.053v13.684a1.053 1.053 0 1 0 2.105 0V11.158A3.162 3.162 0 0 0 24.842 8Zm-6.316 17.895H9.053a1.053 1.053 0 0 0 0 2.105h9.473a1.053 1.053 0 1 0 0-2.105Z" data-follow-fill="#F6F9FF"/><path fill-opacity=".85" fill="#F6F9FF" d="M28.823 4H15.06a1.059 1.059 0 0 0 0 2.118h13.764a1.06 1.06 0 0 1 1.06 1.058v13.765a1.059 1.059 0 1 0 2.117 0V7.176A3.18 3.18 0 0 0 28.823 4Z" data-follow-fill="#F6F9FF"/></svg>