<svg xmlns="http://www.w3.org/2000/svg" fill="none" viewBox="0 0 36 36"><path fill-opacity=".85" fill="#F6F9FF" d="m9.493 6.913 3.39-2.002 1.145 1.936-3.39 2.002-1.145-1.936ZM6.75 13.5H4.5v-2.363c0-.787.45-1.575 1.125-1.912l1.688-1.012 1.125 1.912-1.688 1.012V13.5ZM4.5 15.75h2.25v4.5H4.5v-4.5Zm2.813 12.038-1.688-1.013C4.95 26.325 4.5 25.65 4.5 24.863V22.5h2.25v2.363l1.688 1.012-1.126 1.913Zm2.173 1.268 1.144-1.937 3.39 2.003-1.144 1.938-3.39-2.003Zm10.201 1.431L18 31.5l-1.688-1.012-1.125 1.912 1.688 1.013A2.17 2.17 0 0 0 18 33.75a1.9 1.9 0 0 0 1.125-.337l1.688-1.013-1.125-1.912Zm2.275-1.342 3.39-2.003 1.145 1.937-3.39 2.002-1.145-1.936Zm6.388-1.133L27.225 26.1l2.025-1.125V22.5h2.25v2.363c0 .787-.45 1.575-1.125 1.912l-2.025 1.238Zm.9-12.262h2.25v4.5h-2.25v-4.5Zm2.25-2.25h-2.25v-2.363l-2.025-1.125L28.35 8.1l2.025 1.125c.675.45 1.125 1.125 1.125 1.912V13.5Zm-9.616-6.705 1.144-1.936 3.39 2.002L25.272 8.8l-3.39-2.004Zm-2.197-1.282L18 4.5l-1.688 1.013L15.188 3.6l1.688-1.013A1.9 1.9 0 0 1 18 2.25a1.9 1.9 0 0 1 1.125.337L20.813 3.6l-1.125 1.913Z" data-follow-fill="#F6F9FF"/></svg>