<?xml version="1.0" standalone="no"?><!DOCTYPE svg PUBLIC "-//W3C//DTD SVG 1.1//EN" "http://www.w3.org/Graphics/SVG/1.1/DTD/svg11.dtd"><svg t="1681113782420" class="icon" viewBox="0 0 1024 1024" version="1.1" xmlns="http://www.w3.org/2000/svg" p-id="2697" xmlns:xlink="http://www.w3.org/1999/xlink" width="200" height="200"><path d="M512 1024c-10.20598 0-17.009967-6.803987-17.009967-17.009967v-782.458472c0-10.20598 6.803987-17.009967 17.009967-17.009966s17.009967 6.803987 17.009967 17.009966v782.458472c0 10.20598-6.803987 17.009967-17.009967 17.009967z" fill="#cdcdcd" p-id="2698"></path><path d="M818.179402 411.641196H205.820598c-10.20598 0-17.009967-6.803987-17.009967-17.009967s6.803987-17.009967 17.009967-17.009967h612.358804c10.20598 0 17.009967 6.803987 17.009967 17.009967s-6.803987 17.009967-17.009967 17.009967zM903.229236 649.780731h-782.458472c-10.20598 0-17.009967-6.803987-17.009967-17.009967s6.803987-17.009967 17.009967-17.009967h782.458472c10.20598 0 17.009967 6.803987 17.009967 17.009967s-6.803987 17.009967-17.009967 17.009967zM818.179402 853.900332H188.810631c-10.20598 0-17.009967-6.803987-17.009967-17.009967s6.803987-17.009967 17.009967-17.009966H818.179402c10.20598 0 17.009967 6.803987 17.009967 17.009966s-6.803987 17.009967-17.009967 17.009967z" fill="#cdcdcd" p-id="2699"></path><path d="M512 1024c-122.471761 0-221.129568-180.305648-221.129568-408.239203S389.528239 207.521595 512 207.521595c10.20598 0 17.009967 6.803987 17.009967 17.009966s-6.803987 17.009967-17.009967 17.009967c-102.059801 0-187.109635 166.697674-187.109635 374.219269S409.940199 989.980066 512 989.980066s187.109635-166.697674 187.109635-374.219269c0-91.853821-13.607973-163.295681-47.627907-231.335548-3.401993-6.803987 0-17.009967 6.803986-23.813953 6.803987-3.401993 17.009967 0 23.813954 6.803986 37.421927 74.843854 54.431894 146.285714 54.431893 244.943522-3.401993 231.335548-102.059801 411.641196-224.531561 411.641196zM648.079734 224.531561c-37.421927 0-68.039867-30.61794-68.039867-68.039867s30.61794-68.039867 68.039867-68.039867 68.039867 30.61794 68.039867 68.039867-30.61794 68.039867-68.039867 68.039867z m0-102.0598c-20.41196 0-34.019934 13.607973-34.019933 34.019933s13.607973 34.019934 34.019933 34.019934 34.019934-13.607973 34.019934-34.019934-13.607973-34.019934-34.019934-34.019933z" fill="#cdcdcd" p-id="2700"></path><path d="M512 1024C287.468439 1024 103.760797 840.292359 103.760797 615.760797S287.468439 207.521595 512 207.521595H539.215947c6.803987 0 10.20598 3.401993 13.607973 10.20598 27.215947 54.431894 71.44186 119.069767 95.255814 149.687707 13.607973-20.41196 37.421927-54.431894 61.235881-88.451827 3.401993-3.401993 6.803987-6.803987 10.20598-6.803987 3.401993 0 10.20598 0 13.607973 3.401994C852.199336 350.405316 920.239203 479.681063 920.239203 619.162791 920.239203 840.292359 736.531561 1024 512 1024z m0-782.458472C304.478405 241.541528 137.780731 408.239203 137.780731 615.760797s166.697674 374.219269 374.219269 374.219269 374.219269-166.697674 374.219269-374.219269c0-122.471761-57.833887-234.737542-159.893688-306.179402-34.019934 51.0299-64.637874 91.853821-68.039867 95.255814-6.803987 6.803987-20.41196 6.803987-27.215947 0-3.401993-3.401993-68.039867-88.451827-105.461794-163.295681H512z" fill="#cdcdcd" p-id="2701"></path><path d="M648.079734 411.641196c-6.803987 0-10.20598-3.401993-13.607973-6.803987-13.607973-17.009967-139.481728-183.707641-139.481728-258.551495 0-78.245847 68.039867-146.285714 153.089701-146.285714s153.089701 64.637874 153.089701 146.285714c0 74.843854-125.873754 238.139535-139.481727 258.551495-3.401993 3.401993-6.803987 6.803987-13.607974 6.803987z m0-374.219269c-64.637874 0-119.069767 51.0299-119.069767 112.265781 0 47.627907 78.245847 159.893688 119.069767 217.727574 44.225914-57.833887 119.069767-170.099668 119.069768-217.727574C767.149502 88.451827 712.717608 37.421927 648.079734 37.421927z" fill="#cdcdcd" p-id="2702"></path></svg>