<?xml version="1.0" standalone="no"?><!DOCTYPE svg PUBLIC "-//W3C//DTD SVG 1.1//EN" "http://www.w3.org/Graphics/SVG/1.1/DTD/svg11.dtd"><svg t="1682575134308" class="icon" viewBox="0 0 1024 1024" version="1.1" xmlns="http://www.w3.org/2000/svg" p-id="2649" xmlns:xlink="http://www.w3.org/1999/xlink" width="200" height="200"><path d="M972.8 499.2c-64-64-166.4-64-230.4 0-32 32-51.2 70.4-51.2 115.2 0 32 6.4 64 25.6 89.6L512 915.2c-51.2 51.2-134.4 51.2-179.2 0-25.6-25.6-38.4-57.6-38.4-89.6s12.8-64 38.4-89.6l403.2-403.2c76.8-76.8 76.8-198.4 0-275.2C665.6-12.8 537.6-12.8 460.8 57.6L256 262.4c-64-44.8-153.6-38.4-204.8 19.2-64 64-64 166.4 0 230.4 32 32 70.4 51.2 115.2 51.2s83.2-19.2 115.2-51.2c57.6-57.6 64-140.8 19.2-204.8l198.4-198.4c51.2-51.2 134.4-51.2 179.2 0 51.2 51.2 51.2 134.4 0 179.2l-403.2 403.2c-38.4 38.4-57.6 83.2-57.6 134.4s19.2 102.4 57.6 134.4c38.4 38.4 83.2 57.6 134.4 57.6s102.4-19.2 134.4-57.6l217.6-211.2c25.6 19.2 57.6 25.6 89.6 25.6 44.8 0 83.2-19.2 115.2-44.8 70.4-64 70.4-166.4 6.4-230.4zM236.8 467.2c-38.4 38.4-108.8 38.4-140.8 0C76.8 448 64 422.4 64 396.8s12.8-51.2 32-70.4c19.2-19.2 44.8-32 70.4-32s51.2 12.8 70.4 32 25.6 44.8 25.6 70.4-6.4 51.2-25.6 70.4z m691.2 217.6c-38.4 38.4-102.4 38.4-140.8 0-19.2-19.2-32-44.8-32-70.4 0-25.6 12.8-51.2 32-70.4 19.2-19.2 44.8-32 70.4-32s51.2 12.8 70.4 32c44.8 38.4 44.8 102.4 0 140.8z" fill="#cdcdcd" p-id="2650"></path></svg>