<svg width="24" height="32" viewBox="0 0 24 32" fill="none" xmlns="http://www.w3.org/2000/svg">
<path d="M12 3C15.3 3 18 5.7 18 9C18 12.15 14.85 17.25 12 20.85C9.15 17.1 6 12.15 6 9C6 5.7 8.7 3 12 3ZM12 0C7.05 0 3 4.05 3 9C3 15.75 12 25.5 12 25.5C12 25.5 21 15.6 21 9C21 4.05 16.95 0 12 0ZM12 6C10.35 6 9 7.35 9 9C9 10.65 10.35 12 12 12C13.65 12 15 10.65 15 9C15 7.35 13.65 6 12 6ZM24 25.5C24 28.8 18.6 31.5 12 31.5C5.4 31.5 0 28.8 0 25.5C0 23.55 1.8 21.9 4.65 20.7L5.55 22.05C4.05 22.8 3 23.7 3 24.75C3 26.85 7.05 28.5 12 28.5C16.95 28.5 21 26.85 21 24.75C21 23.7 19.95 22.8 18.3 22.05L19.2 20.7C22.2 21.9 24 23.55 24 25.5Z" fill="#F6F9FF" fill-opacity="0.85"/>
</svg><svg xmlns="http://www.w3.org/2000/svg" fill="none" viewBox="0 0 24 32"><path fill-opacity=".85" fill="#F6F9FF" d="M12 3c3.3 0 6 2.7 6 6 0 3.15-3.15 8.25-6 11.85C9.15 17.1 6 12.15 6 9c0-3.3 2.7-6 6-6Zm0-3C7.05 0 3 4.05 3 9c0 6.75 9 16.5 9 16.5s9-9.9 9-16.5c0-4.95-4.05-9-9-9Zm0 6c-1.65 0-3 1.35-3 3s1.35 3 3 3 3-1.35 3-3-1.35-3-3-3Zm12 19.5c0 3.3-5.4 6-12 6s-12-2.7-12-6c0-1.95 1.8-3.6 4.65-4.8l.9 1.35C4.05 22.8 3 23.7 3 24.75c0 2.1 4.05 3.75 9 3.75s9-1.65 9-3.75c0-1.05-1.05-1.95-2.7-2.7l.9-1.35c3 1.2 4.8 2.85 4.8 4.8Z" data-follow-fill="#F6F9FF"/></svg>