<svg xmlns="http://www.w3.org/2000/svg" fill="none" viewBox="0 0 36 36"><g clip-path="url(#a)"><path fill-opacity=".85" fill="#F6F9FF" d="m18 3 6.364 6.364-2.122 2.121L18 7.242l-4.242 4.244-2.122-2.122L18 3ZM3 18l6.364-6.364 2.121 2.122L7.242 18l4.244 4.242-2.122 2.122L3 18Zm30 0-6.364 6.364-2.121-2.122L28.758 18l-4.243-4.242 2.12-2.122L33 18Zm-15 3a3 3 0 1 1 0-6 3 3 0 0 1 0 6Zm0 12-6.364-6.364 2.122-2.121L18 28.758l4.242-4.243 2.122 2.12L18 33Z"/></g><defs><clipPath id="a"><path fill="#fff" d="M0 0h36v36H0z"/></clipPath></defs></svg>